<svg enable-background="new 0 0 64 64" height="512" viewBox="0 0 64 64" width="512" xmlns="http://www.w3.org/2000/svg"><path d="m54.887 38.307-5.408 7.547c-.636.165-1.284.306-1.946.413-11.529 1.871-22.392-5.959-24.262-17.486-1.618-9.977 4.029-19.448 13.046-23.032-.547-.02-1.099-.016-1.652 0h-4.348l-4.331 1.717h.003c-11.392 4.35-18.562 16.227-16.532 28.737 1.761 10.854 9.941 19.064 20.033 21.392v.673h5.886l-.006-.004c1.393-.001 2.803-.108 4.223-.339 10.707-1.735 18.841-9.715 21.296-19.618z" fill="#efc36a"/><path d="m35.375 58.768h-5.886c-.276 0-.5-.224-.5-.5v-.278c-10.457-2.574-18.297-11.052-20.026-21.707-2.021-12.455 5.05-24.759 16.813-29.271.009-.004.018-.008.027-.012l4.331-1.717c.059-.023.121-.035.184-.035h4.348c.549-.015 1.11-.019 1.67 0 .236.009.434.182.475.415.041.232-.088.462-.308.55-8.919 3.545-14.276 13.002-12.738 22.487.883 5.443 3.833 10.217 8.307 13.442s9.934 4.513 15.381 3.631c.565-.092 1.131-.21 1.726-.359l5.302-7.398c.094-.131.245-.209.406-.209h6c.154 0 .299.07.394.192.095.121.128.278.091.428-2.584 10.427-11.102 18.273-21.701 19.991-1.383.225-2.807.341-4.233.346-.021.003-.042.004-.063.004zm-5.386-1h5.317c.02-.003.041-.004.062-.004 1.396-.001 2.791-.113 4.143-.332 9.991-1.62 18.062-8.897 20.729-18.625h-5.096l-5.259 7.338c-.068.096-.167.164-.281.193-.689.179-1.34.316-1.991.422-5.709.927-11.436-.426-16.125-3.807-4.691-3.381-7.784-8.386-8.71-14.093-1.488-9.18 3.184-18.335 11.266-22.612h-3.63l-4.206 1.667c-.012.006-.025.012-.039.017-11.345 4.333-18.166 16.189-16.219 28.191 1.685 10.382 9.398 18.619 19.651 20.984.227.053.388.255.388.487z" fill="#63312d"/><path d="m41.533 46.267c-11.529 1.871-22.392-5.959-24.262-17.486-1.618-9.977 4.029-19.448 13.046-23.032-1.689-.06-3.407.042-5.138.322-14.319 2.323-24.045 15.815-21.722 30.132 2.323 14.318 15.814 24.046 30.134 21.722 10.707-1.735 18.841-9.715 21.296-19.618-3.165 4.105-7.834 7.065-13.354 7.96z" fill="#f9dd9d"/><path d="m6.081 36.203c-2.323-14.317 7.403-27.809 21.723-30.133.805-.13 1.606-.218 2.404-.272.038-.016.073-.035.11-.05-1.689-.06-3.407.042-5.138.322-14.32 2.324-24.046 15.816-21.723 30.133 2.164 13.337 14.018 22.686 27.205 22.027-12.104-.609-22.562-9.582-24.581-22.027z" fill="#ffeecf"/><path d="m29.327 58.771c-5.57 0-10.986-1.738-15.594-5.06-5.8-4.182-9.625-10.37-10.77-17.428-2.363-14.566 7.568-28.342 22.137-30.706 1.728-.28 3.488-.39 5.236-.329.236.009.435.182.475.415.041.232-.088.462-.308.55-8.919 3.545-14.276 13.002-12.738 22.487.883 5.443 3.833 10.217 8.307 13.442 4.475 3.225 9.936 4.513 15.381 3.631 5.193-.842 9.823-3.602 13.038-7.772.145-.188.403-.244.613-.145.213.103.325.341.268.57-2.584 10.428-11.102 18.274-21.701 19.992-1.45.236-2.903.353-4.344.353zm-1.323-52.501c-.919.049-1.837.147-2.744.294-14.025 2.276-23.584 15.537-21.31 29.559 1.102 6.794 4.784 12.752 10.367 16.776s12.398 5.633 19.194 4.532c9.439-1.53 17.165-8.111 20.238-17.037-3.237 3.376-7.47 5.609-12.136 6.365-5.71.927-11.435-.426-16.125-3.807-4.691-3.381-7.784-8.386-8.71-14.093-1.486-9.164 3.168-18.303 11.226-22.589z" fill="#63312d"/></svg>